<svg width="91" height="66" viewBox="0 0 91 66" fill="none" xmlns="http://www.w3.org/2000/svg">
<circle cx="46" cy="33" r="32.5" fill="white" stroke="#081922"/>
<path d="M41 39.5C41 49.6526 32.5588 58 22 58C11.4412 58 3 49.6526 3 39.5C3 29.3474 11.4412 21 22 21C32.5588 21 41 29.3474 41 39.5Z" fill="white" stroke="#081922" stroke-width="6"/>
<path d="M88 39.5C88 49.6526 79.5588 58 69 58C58.4412 58 50 49.6526 50 39.5C50 29.3474 58.4412 21 69 21C79.5588 21 88 29.3474 88 39.5Z" fill="white" stroke="#081922" stroke-width="6"/>
<path d="M38 59C38 59 42.0996 61.3835 45 61.5C48.2706 61.6313 53 59 53 59" stroke="black"/>
</svg>
