<svg width="130" height="130" viewBox="0 0 130 130" fill="none" xmlns="http://www.w3.org/2000/svg">
<rect width="130" height="130" rx="30" fill="#363636" fill-opacity="0.2"/>
<path d="M5 111.561V79.4392H13.4142V104.534H25.9446V111.561H5Z" fill="#2A1C07"/>
<path d="M58.1635 95.5C58.1635 99.076 57.4926 102.093 56.1508 104.55C54.8089 106.997 52.998 108.853 50.7179 110.118C48.4378 111.373 45.8954 112 43.0907 112C40.2658 112 37.7133 111.367 35.4332 110.102C33.1632 108.827 31.3573 106.965 30.0154 104.519C28.6837 102.061 28.0178 99.0551 28.0178 95.5C28.0178 91.924 28.6837 88.9125 30.0154 86.4658C31.3573 84.0086 33.1632 82.1526 35.4332 80.8978C37.7133 79.6326 40.2658 79 43.0907 79C45.8954 79 48.4378 79.6326 50.7179 80.8978C52.998 82.1526 54.8089 84.0086 56.1508 86.4658C57.4926 88.9125 58.1635 91.924 58.1635 95.5ZM49.5072 95.5C49.5072 93.576 49.26 91.9553 48.7657 90.6378C48.2814 89.3099 47.5601 88.3061 46.6016 87.6264C45.6533 86.9363 44.4829 86.5913 43.0907 86.5913C41.6984 86.5913 40.523 86.9363 39.5646 87.6264C38.6162 88.3061 37.8949 89.3099 37.4005 90.6378C36.9163 91.9553 36.6741 93.576 36.6741 95.5C36.6741 97.424 36.9163 99.0499 37.4005 100.378C37.8949 101.695 38.6162 102.699 39.5646 103.389C40.523 104.069 41.6984 104.409 43.0907 104.409C44.4829 104.409 45.6533 104.069 46.6016 103.389C47.5601 102.699 48.2814 101.695 48.7657 100.378C49.26 99.0499 49.5072 97.424 49.5072 95.5Z" fill="#2A1C07"/>
<path d="M82.1839 90.0418C82.0528 89.4876 81.846 89.0014 81.5635 88.5832C81.281 88.1545 80.9279 87.7937 80.5041 87.501C80.0905 87.1977 79.6062 86.9729 79.0513 86.8265C78.5065 86.6697 77.9062 86.5913 77.2505 86.5913C75.838 86.5913 74.6324 86.9415 73.6336 87.6421C72.6449 88.3427 71.8882 89.3517 71.3636 90.6692C70.849 91.9867 70.5918 93.576 70.5918 95.4373C70.5918 97.3194 70.839 98.9297 71.3333 100.268C71.8277 101.606 72.5642 102.631 73.5428 103.342C74.5214 104.053 75.7371 104.409 77.1899 104.409C78.4712 104.409 79.5356 104.215 80.3831 103.828C81.2406 103.442 81.8813 102.893 82.305 102.182C82.7287 101.471 82.9406 100.634 82.9406 99.6721L84.3934 99.8289H77.311V93.6179H91.0521V98.0722C91.0521 101 90.4518 103.504 89.2512 105.585C88.0607 107.655 86.4162 109.245 84.3177 110.353C82.2293 111.451 79.8332 112 77.1294 112C74.1128 112 71.4645 111.336 69.1844 110.008C66.9043 108.68 65.1236 106.788 63.8423 104.33C62.5711 101.873 61.9355 98.9506 61.9355 95.5627C61.9355 92.9068 62.3239 90.5542 63.1008 88.5048C63.8877 86.4553 64.9773 84.7248 66.3696 83.3132C67.7618 81.8912 69.371 80.8194 71.1971 80.0979C73.0232 79.366 74.9805 79 77.0689 79C78.905 79 80.6101 79.2719 82.1839 79.8156C83.7679 80.3489 85.1652 81.1122 86.3759 82.1055C87.5966 83.0884 88.5803 84.2543 89.3269 85.6031C90.0735 86.952 90.5275 88.4316 90.6889 90.0418H82.1839Z" fill="#2A1C07"/>
<path d="M125 95.5C125 99.076 124.329 102.093 122.987 104.55C121.645 106.997 119.834 108.853 117.554 110.118C115.274 111.373 112.732 112 109.927 112C107.102 112 104.55 111.367 102.27 110.102C99.9997 108.827 98.1938 106.965 96.8519 104.519C95.5202 102.061 94.8543 99.0551 94.8543 95.5C94.8543 91.924 95.5202 88.9125 96.8519 86.4658C98.1938 84.0086 99.9997 82.1526 102.27 80.8978C104.55 79.6326 107.102 79 109.927 79C112.732 79 115.274 79.6326 117.554 80.8978C119.834 82.1526 121.645 84.0086 122.987 86.4658C124.329 88.9125 125 91.924 125 95.5ZM116.344 95.5C116.344 93.576 116.097 91.9553 115.602 90.6378C115.118 89.3099 114.397 88.3061 113.438 87.6264C112.49 86.9363 111.319 86.5913 109.927 86.5913C108.535 86.5913 107.36 86.9363 106.401 87.6264C105.453 88.3061 104.731 89.3099 104.237 90.6378C103.753 91.9553 103.511 93.576 103.511 95.5C103.511 97.424 103.753 99.0499 104.237 100.378C104.731 101.695 105.453 102.699 106.401 103.389C107.36 104.069 108.535 104.409 109.927 104.409C111.319 104.409 112.49 104.069 113.438 103.389C114.397 102.699 115.118 101.695 115.602 100.378C116.097 99.0499 116.344 97.424 116.344 95.5Z" fill="#2A1C07"/>
<circle cx="65" cy="46" r="32.5" fill="white" stroke="#081922"/>
<path d="M60 52.5C60 62.6526 51.5588 71 41 71C30.4412 71 22 62.6526 22 52.5C22 42.3474 30.4412 34 41 34C51.5588 34 60 42.3474 60 52.5Z" fill="white" stroke="#081922" stroke-width="6"/>
<path d="M107 52.5C107 62.6526 98.5588 71 88 71C77.4412 71 69 62.6526 69 52.5C69 42.3474 77.4412 34 88 34C98.5588 34 107 42.3474 107 52.5Z" fill="white" stroke="#081922" stroke-width="6"/>
<path d="M57 72C57 72 61.0996 74.3835 64 74.5C67.2706 74.6313 72 72 72 72" stroke="black" stroke-width="2"/>
</svg>
